
        <svg xmlns="http://www.w3.org/2000/svg" xmlns:xlink="http://www.w3.org/1999/xlink" version="1.1" width="3140.4957249299982" 
        height="3188.90199849203" viewBox="0 0 3140.4957249299982 3188.90199849203">
			<rect fill="#1e1b1d" width="3140.4957249299982" height="3188.90199849203"/>
			<g transform="scale(9.445099924601498) translate(10, 10)">
				<defs id="SvgjsDefs13697"><linearGradient id="SvgjsLinearGradient13706"><stop id="SvgjsStop13707" stop-color="#2d388a" offset="0"></stop><stop id="SvgjsStop13708" stop-color="#00aeef" offset="1"></stop></linearGradient></defs><g id="SvgjsG13698" featureKey="rootContainer" transform="matrix(1.679851890870981,0,0,1.679851890870981,0.0005871445827524324,0.0002897674663174521)" fill="#d98388"><path xmlns="http://www.w3.org/2000/svg" d="M17.914 148.907zM22.657 154.94a90.586 90.586 0 0 0 5.861 6.251c6.914 6.805 15.159 12.525 24.004 16.851 3.259 1.526 6.265 3.107 9.787 4.468.88.338 1.779.7 2.724 1.026.953.302 1.941.604 2.974.903 1.027.321 2.122.549 3.267.786 1.146.23 2.336.493 3.614.624a91.24 91.24 0 0 1-18.434-5.99 93.833 93.833 0 0 1-16.873-9.842c-10.548-7.727-19.57-17.648-26.16-28.989-.272-.339-.685-.985-1.18-1.808l-.796-1.348-.803-1.551c-.534-1.076-1.149-2.168-1.62-3.226a71.281 71.281 0 0 0-1.326-2.748c2.048 5.101 4.412 9.563 7.059 13.806a93.473 93.473 0 0 0 3.869 5.697c-.192-.259-.392-.511-.583-.771a95.012 95.012 0 0 0 4.6 5.841l.016.02zM18.039 149.078l-.125-.17.125.17zM1.335 106.042l-.483-3.875c.256 2.365.553 5.008 1.096 7.654l-.327-1.879a23.961 23.961 0 0 1-.286-1.9zM85.812 185.575c6.652.673 13.628.472 20.461-.609 6.837-1.077 13.524-2.987 19.741-5.449-11.45 4.503-23.602 6.506-35.49 6.171-1.591-.025-3.159 0-4.712-.113z"></path><path xmlns="http://www.w3.org/2000/svg" d="M46.426 171.967l-.259-.165c.087.055.172.111.259.165zM46.167 171.802zM43.653 170.135zM56.077 177.284A83.837 83.837 0 0 0 73.2 183.1c-9.688-2.21-18.805-6.109-26.774-11.133 3.06 1.947 6.277 3.749 9.651 5.317zM177.002 107.094c.098-1.58.296-3.238.346-4.027.594-5.071.77-9.401.745-13.745-.11-.783-.425-2.25-.55-3.918-.153-1.672-.378-3.309-.568-4.924-.289-1.601-.538-3.186-.854-4.74 2.275 11.617 2.237 23.279.144 34.282a94.97 94.97 0 0 1 .737-2.928z"></path><path xmlns="http://www.w3.org/2000/svg" d="M.887 83.482c.848-6.9 2.653-13.626 4.37-18.107l-.695 3.28c.429-.961 1.122-3.194 2.067-5.557l.682-1.802.753-1.747c.5-1.131.92-2.203 1.363-3.025-.303.771-.595 1.602-.947 2.436-.345.837-.732 1.687-1.101 2.542l1.514-3.409A111.863 111.863 0 0 0 4.954 69.8c-1.133 4.352-2.029 8.926-2.511 13.032-.14 1.024-.189 2.024-.28 2.978-.067.954-.183 1.864-.192 2.724-.042 1.719-.1 3.224-.071 4.428.105 2.409.25 3.61.459 2.939.411-1.333.403-8.188 1.837-16.767.767-4.276 1.868-8.966 3.362-13.561 1.483-4.599 3.427-9.058 5.44-12.992l-.592 1.292-.545 1.331-1.116 2.691-1.024 2.78-.521 1.402c-.153.476-.308.954-.461 1.434-1.32 3.807-2.307 7.816-3.167 11.857l-.559 3.052c-.205 1.014-.292 2.046-.444 3.067-.318 2.041-.434 4.097-.611 6.129-.199 4.074-.239 8.098.13 11.946-.015-.914-.03-1.726-.017-2.512l.115-2.355c.048-.809.039-1.667.115-2.65.07-.983.134-2.091.19-3.402.391-6.608 1.572-13.15 3.408-19.481 1.75-6.358 3.814-11.957 6.889-17.03l.801-1.526c.542-1.024.993-2.034 1.566-3.064.653-1.13 1.278-1.976 1.784-2.751.521-.767.963-1.441 1.469-2.095l3.682-5.082c.075-.009-.022.185-.2.473a28.962 28.962 0 0 1 1.959-2.49c.755-.875 1.488-1.803 2.109-2.569.146-.007.288-.011.623-.251 8.65-9.197 19.295-16.692 31.291-21.417l2.667-1.039 2.7-.899 1.343-.448 1.36-.38 2.71-.753c1.55-.373 3.12-.751 4.721-1.091l2.437-.426c.819-.141 1.642-.3 2.484-.378 1.674-.201 3.134-.625 3.921-.729 4.369-.249 8.73-.199 13.849.216.397.007 1.015.043 1.732.082.717.041 1.537.061 2.332.134.932.21 1.927.418 2.971.621 6.369.988 12.527 2.754 18.386 5.103l-.007-.028 2.244.894 2.29 1.058c1.571.684 3.11 1.559 4.7 2.383.798.407 1.554.904 2.338 1.354.77.474 1.576.894 2.32 1.412 1.508 1.002 3.037 1.961 4.446 3.032a99.912 99.912 0 0 1 6.6 5.198c.046.042.094.081.14.122l.042.038 1.457 1.322 1.394 1.391 1.395 1.392c.462.467.89.967 1.337 1.449-.216-.35-.208-.491-.2-.63-.689-.66-1.504-1.441-2.309-2.21 1.343 1.222 2.515 2.327 3.477 3.229.371.474.776.94 1.16 1.449l1.186 1.566 1.261 1.629 1.255 1.752c2.226 2.838 4.191 5.874 6.057 8.97.864 1.588 1.817 3.131 2.586 4.774l1.213 2.436 1.092 2.497c.314.533.192.022.231-.068 1.225 2.962 2.21 6.042 3.102 9.146a88.212 88.212 0 0 1 3.408 17.211c.225 1.378.321 2.772.52 4.153l-.123 2.924c-.001 1.103.057 2.206.01 3.311l-.128 3.326c-.016.75-.124 1.569-.187 2.459-.084.888-.128 1.846-.256 2.856l-.412 3.192c-.132 1.119-.387 2.269-.583 3.471a90.635 90.635 0 0 1-4.312 15.482c-.242.826-.427 1.486-.592 1.855-.627 1.501-1.296 2.954-1.942 4.385-.723 1.394-1.386 2.788-2.127 4.108a86.09 86.09 0 0 1-7.949 12.379c-.336.439-.649.885-.987 1.297l-.998 1.206c-.66.779-1.25 1.558-1.876 2.234-1.251 1.352-2.301 2.606-3.286 3.549-1.128 1.178-1.027 1.233-.246.665a35.07 35.07 0 0 0 1.608-1.262l2.122-1.914c.776-.677 1.519-1.441 2.235-2.161.708-.725 1.416-1.386 1.962-1.984 1.101-1.191 1.824-1.926 1.67-1.599-1.777 3.345-5.013 7.471-9.743 12.035-2.413 2.227-5.128 4.647-8.339 6.98-1.566 1.221-3.307 2.338-5.082 3.558-1.834 1.123-3.708 2.353-5.757 3.445-4.484 2.442 3.365-1.475 3.577-1.512a22.87 22.87 0 0 1-2.377 1.64c-1.478.786-2.943 1.597-4.474 2.273-.895.411-1.774.855-2.679 1.239l-2.729 1.122 1.444-.568c2.952-1.173 5.711-2.555 8.202-3.922-.936.566-1.96 1.221-3.082 1.812-1.203.622-2.448 1.302-3.697 1.909l-3.625 1.686c12.968-4.711 24.885-12.507 34.319-22.67 4.723-5.066 8.935-10.631 12.369-16.651a93.904 93.904 0 0 0 8.288-18.999c-3.154 9.93-8.071 19.052-13.981 26.765 10.744-14.507 17.15-32.293 17.999-50.636-.001 1.011-.101 2.018-.168 3.025-.083 1.007-.123 2.018-.241 3.022-.257 2.005-.441 4.021-.827 6.009-.624 4-1.636 7.931-2.782 11.815 2.262-7.021 3.613-14.424 4.145-21.869.554-7.451.092-14.947-1.057-22.211 1.974 9.622 2.301 20.524.619 31.298 1.182-6.949 1.482-14.112 1.028-21.214-.102-2.713-.422-5.407-.685-7.901-.377-2.476-.662-4.762-1.027-6.611 1.445 6.826 2.015 12.648 2.293 18.136-.267-11.977-2.748-24.112-7.62-35.511 2.659 6.191 4.842 12.851 6.175 19.698 1.34 6.84 1.897 13.838 1.58 20.57-.015-.788.018-1.575-.028-2.366l-.107-2.391c.287 10.85-1.384 21.604-4.696 31.717-1.662 5.056-3.715 9.969-6.2 14.644a95.521 95.521 0 0 1-8.56 13.316c3.673-4.29 7.551-10.354 10.646-17.015 3.081-6.675 5.368-13.894 6.941-20.199-2.314 11.322-6.907 22.494-13.571 32.471-6.646 9.985-15.351 18.764-25.423 25.502-10.06 6.759-21.474 11.437-33.187 13.748a94.608 94.608 0 0 1-17.657 1.809 94.462 94.462 0 0 1-17.361-1.515l3.005.571c1.002.19 2.018.295 3.026.445 2.016.324 4.055.446 6.087.633 4.073.229 8.168.306 12.25-.005 4.089-.217 8.152-.827 12.196-1.572 2.006-.456 4.036-.829 6.017-1.414.994-.278 2-.521 2.987-.83l2.955-.958c-1.492.462-3.062 1.074-4.739 1.523l-2.101.618a91.772 91.772 0 0 0 12.91-4.496 89.46 89.46 0 0 0 5.651-2.705 96.653 96.653 0 0 1-10.714 4.872 98.407 98.407 0 0 1-21.66 5.382c-1.11.176-2.122.231-3.029.326l-2.428.24c-1.429.113-2.484.164-3.222.245-1.477.147-1.687.284-1.099.397.587.113 1.971.203 3.673.251 1.697-.01 3.71-.101 5.541-.268 18.397-1.887 35.288-9.107 48.824-19.916 13.545-10.811 23.919-25.172 29.701-41.467.363-.946.642-1.922.944-2.89.293-.971.617-1.932.882-2.912.491-1.97 1.072-3.917 1.448-5.917l.619-2.985.487-3.012.241-1.507.172-1.517.342-3.034c.698-8.114.422-16.315-.812-24.363-.66-4.554-1.82-9.961-3.315-14.777l-1.15-3.484c-.4-1.107-.825-2.151-1.203-3.133l-.557-1.415-.571-1.271-.981-2.124c-3.134-6.359-7.072-12.424-11.682-18.065-4.605-5.643-9.896-10.868-15.861-15.418l-2.244-1.703-2.327-1.608-1.166-.806-1.203-.756-2.417-1.508c-3.295-1.904-6.67-3.739-10.228-5.261-3.521-1.598-7.206-2.895-10.957-4.055-1.895-.52-3.781-1.1-5.724-1.499-.968-.209-1.928-.463-2.907-.638l-2.944-.521C100.363.01 93.04-.285 85.724.265 78.412.83 71.069 2.218 64.028 4.614l-2.635.913c-.881.297-1.73.682-2.597 1.019-.858.359-1.735.673-2.577 1.069l-2.532 1.173c-.852.376-1.675.808-2.496 1.245l-2.469 1.297-2.402 1.412c-.8.472-1.606.933-2.372 1.458l-2.324 1.528c-.782.497-1.506 1.078-2.261 1.612-.741.554-1.51 1.07-2.226 1.654l-2.157 1.737c-.729.565-1.417 1.178-2.103 1.792l-2.063 1.83-1.971 1.919c-.656.639-1.319 1.271-1.93 1.951-5.031 5.298-9.451 11.078-13.066 17.194A99.518 99.518 0 0 0 5.18 64.379C.805 77.299-.45 90.402.134 102.237c-.126-4.872-.147-11.859.753-18.755zm141.132 90.446a96.807 96.807 0 0 0 8.765-6.389c-2.84 2.339-5.758 4.499-8.765 6.389zm40.217-54.282c-.299.901-.552 1.791-.882 2.641l-.957 2.523-.466 1.248-.513 1.231a108.54 108.54 0 0 0-.997 2.501 97.307 97.307 0 0 1-6.587 13.35c-2.521 4.275-5.443 8.281-8.565 12.04-1.542 1.899-3.222 3.66-4.874 5.421l-2.581 2.523c-.847.848-1.774 1.604-2.652 2.404-.736.64-1.478 1.266-2.225 1.882a90.696 90.696 0 0 0 7.896-7.312 89.808 89.808 0 0 1-11.689 10.188c-1.036.722-2.037 1.496-3.113 2.176l-3.247 2.069-3.43 1.949c-1.167.648-2.399 1.224-3.634 1.855a74.206 74.206 0 0 1 2.685-1.508c1.021-.567 2.092-1.237 3.138-1.85 1.054-.601 2.012-1.261 2.808-1.813.796-.552 1.42-1.01 1.745-1.306-.464.315-.936.617-1.406.924a92.477 92.477 0 0 0 1.507-1.015c-.021.023-.065.059-.101.091 10.932-7.466 20.245-17.277 27.223-28.462 7.009-11.175 11.57-23.781 13.46-36.601-.41 5.142-1.352 9.248-2.543 12.851zm-6.654-65.352zm-8.448-12.698a92.37 92.37 0 0 1 7.773 14.352c.25.549.486 1.106.719 1.664 4.963 12.154 7.221 25.192 6.89 38.036.084-4.25-.198-8.498-.669-12.71-.533-4.854-1.518-9.65-2.824-14.341-2.562-9.407-6.723-18.323-12.005-26.451.485.67.996 1.396 1.525 2.166a32.826 32.826 0 0 1 1.59 2.463l-.638-1.109-.689-1.079-1.378-2.156c-.938-1.424-1.955-2.796-2.934-4.192-1.062-1.334-2.069-2.712-3.174-4.011-.836-.953-1.637-1.938-2.485-2.879 2.992 3.155 5.801 6.54 8.299 10.247zM96.886 1.152c1.467.078 2.937.221 4.407.331 1.204.101 2.402.279 3.588.413.356.015.732.039 1.204.092.471.065 1.034.186 1.769.354 5.469.912 10.459 2.283 14.001 3.699 6.798 2.573 13.123 5.774 18.86 9.471 5.739 3.69 10.889 7.887 15.246 12.471 2.008 2.179 1.422 1.704.315.646l1.662 1.764c-.736-.734-1.459-1.478-2.206-2.196l-2.301-2.09c.56.49 1.918 1.663 2.845 2.522-7.389-7.539-16.026-13.799-25.375-18.404-9.356-4.603-19.431-7.446-29.502-8.581 1.618.18 2.412.22 3.168.24-1.085-.127-2.173-.301-3.274-.401-1.479-.097-2.955-.229-4.423-.301l-4.36-.103c1.444-.001 2.907.039 4.376.073z"></path><path xmlns="http://www.w3.org/2000/svg" d="M115.942 184.69l.426-.125c-.446.12-.885.252-1.334.366.304-.076.609-.15.908-.241zM160.424 146.151c4.235-5.587 7.977-12.263 10.366-18.014l-.029.006c-6.061 14.322-15.892 26.66-28.16 35.744a159.12 159.12 0 0 0 6.418-4.703c2.698-2.82 7.213-7.406 11.405-13.033zM35.35 162.846c7.172 6.412 15.821 11.992 25.448 15.751 3.754 1.413 7.585 2.651 11.503 3.523 1.944.502 3.929.812 5.899 1.181.987.175 1.987.272 2.979.412.994.129 1.986.275 2.987.333-4.519-.501-9.005-1.251-13.372-2.44-4.364-1.185-8.642-2.65-12.769-4.449a97.4 97.4 0 0 1-11.894-6.314c-3.786-2.408-7.376-5.097-10.781-7.997zM123.877 174.277l-2.219.871-2.266.756c-1.5.54-3.047.944-4.59 1.373 1.551-.39 3.111-.754 4.624-1.254l2.283-.698 2.23-.815c-.086-.044-.594.055-.062-.233zM97.683 179.965c-1.16.099-2.326.09-3.494.102-1.168.014-2.338.039-3.509-.038l1.576.148c.482.031.916.068 1.295.113 1.381-.118 2.752-.151 4.132-.325zM51.441 169.209c1.341.787 2.765 1.48 4.178 2.244.354.194.996.415 1.801.709-1.721-.739-3.37-1.655-5.046-2.505-.83-.441-1.629-.935-2.443-1.395-.812-.464-1.621-.927-2.389-1.445l.937.626.977.584 1.985 1.182z"></path></g><g id="SvgjsG13699" featureKey="MI9fam-0" transform="matrix(21.926752389837553,0,0,21.926752389837553,101.79896344007796,59.513382452529726)" fill="url(#SvgjsLinearGradient13706)"><g xmlns="http://www.w3.org/2000/svg"><path fill="url(#SvgjsLinearGradient13706)" d="M4.896,3.183C4.867,3.142,4.834,3.104,4.793,3.071C4.67,2.844,4.471,2.645,4.264,2.492   c-0.17-0.128-0.309-0.161-0.438-0.021C3.693,2.319,3.639,2.112,3.498,1.959C3.346,1.79,3.26,1.571,3.049,1.459   C2.953,1.41,2.846,1.442,2.787,1.529C2.693,1.687,2.623,1.86,2.512,2.004C2.389,2.166,2.279,2.335,2.164,2.496   c-0.074-0.058-0.148-0.11-0.211-0.19C1.908,2.24,1.846,2.19,1.785,2.141C1.678,2.062,1.527,1.992,1.416,2.1   C1.293,2.224,1.23,2.39,1.156,2.546c-0.049,0.104-0.115,0.183-0.16,0.276C0.975,2.799,0.949,2.773,0.92,2.762   c-0.008-0.01-0.016-0.01-0.023-0.014c-0.088-0.07-0.199-0.104-0.318-0.041C0.293,2.859,0.193,3.17,0.102,3.463   C0.09,3.5,0.148,3.521,0.168,3.488c0.096-0.17,0.236-0.272,0.352-0.417c0.055-0.062,0.1-0.116,0.133-0.19   c0.004-0.004,0.004-0.004,0.004-0.009l0,0c0.016,0.017,0.033,0.037,0.049,0.054c0,0.038,0.012,0.079,0.033,0.108   c0.041,0.066,0.133,0.115,0.137,0.193c0,0.066-0.033,0.128-0.074,0.187C0.76,3.451,0.723,3.488,0.693,3.546   c0,0.005,0,0.013,0.008,0.009C0.838,3.542,0.949,3.434,1.07,3.377c0.082-0.042,0.16-0.092,0.246-0.128   C1.395,3.22,1.461,3.216,1.52,3.153c0.029-0.029,0.021-0.074-0.012-0.096C1.445,3.021,1.371,3.021,1.297,3.042   C1.23,3.017,1.16,2.997,1.1,2.959C1.086,2.951,1.07,2.946,1.057,2.938c0.025-0.087,0.137-0.177,0.182-0.243   c0.07-0.1,0.115-0.22,0.178-0.327c0.004-0.012,0.041-0.07,0.07-0.107c0.029,0.082,0.059,0.156,0.07,0.244   C1.578,2.607,1.689,2.662,1.693,2.77C1.697,2.855,1.73,2.918,1.797,2.968C1.838,3.001,1.879,3.005,1.93,3.029   c0.027,0.009,0.045,0.024,0.057,0.046c-0.004,0.107-0.02,0.219-0.025,0.317c0,0.014,0.014,0.018,0.021,0.009   c0.045-0.058,0.074-0.104,0.104-0.174c0.029-0.074,0.09-0.152,0.111-0.23c0.012-0.042,0.016-0.088,0.021-0.129   C2.223,2.852,2.23,2.831,2.23,2.811c0-0.004,0-0.004,0-0.008c0.025-0.041,0.049-0.088,0.086-0.111   c0.096-0.066,0.137-0.137,0.188-0.236c0.115-0.228,0.256-0.43,0.408-0.628c0.012,0,0.025,0.008,0.037,0.012   c0.008,0.112,0.045,0.212,0.078,0.318C3.07,2.29,3.168,2.394,3.215,2.525C3.219,2.533,3.219,2.542,3.223,2.55   c-0.096,0-0.352-0.074-0.344-0.049c0.016,0.091,0.088,0.321,0.145,0.392c0.088,0.104,0.15,0.187,0.207,0.306   C3.346,3.43,3.561,3.48,3.789,3.562c0.049,0.021,0.09-0.059,0.049-0.092C3.746,3.401,3.664,3.34,3.623,3.236   c0.02,0,0.037,0,0.053-0.005C3.701,3.24,3.73,3.24,3.742,3.22C3.76,3.203,3.771,3.183,3.785,3.161   c0.016-0.02,0.023-0.041,0.033-0.066C3.889,2.931,3.9,2.736,4.02,2.607c0.051,0.046,0.1,0.088,0.156,0.129   c0.037,0.029,0.084,0.07,0.133,0.107c-0.045,0-0.086,0.008-0.115,0.024c-0.021,0.017-0.025,0.046,0,0.058   C4.301,2.983,4.43,2.968,4.527,3.054c0.096,0.078,0.211,0.153,0.336,0.174C4.887,3.231,4.912,3.207,4.896,3.183z"></path></g></g><g id="SvgjsG13700" featureKey="EI8VXn-0" transform="matrix(2.2040994918726016,0,0,2.2040994918726016,54.45713038196409,145.3484694211296)" fill="#e0a465"><path d="M0.7 20 l0 -0.54 c0.66 -0.72 1 -1.66 1 -2.64 l0 -7.64 c0 -0.96 -0.34 -1.92 -1 -2.62 l0 -0.56 l6.94 0 c1.96 0 3.54 1.58 3.54 3.5 c0 1.3 -0.66 2.36 -1.68 2.98 c1.74 0.4 3 1.88 3 3.72 c0 2.1 -1.7 3.8 -3.82 3.8 l-7.98 0 z M3.88 12.379999999999999 l3.12 0 c1.56 0 2.84 -1.28 2.84 -2.88 c0 -1.58 -1.28 -2.86 -2.84 -2.86 l-3.12 0 l0 5.74 z M3.88 19.32 l3.58 0 c1.72 0 3.12 -1.4 3.12 -3.12 s-1.4 -3.12 -3.12 -3.12 l-3.58 0 l0 6.24 z M13.760000000000002 13 c0 -4.1 3.4 -7.26 7.58 -7.26 c4.22 0 7.6 3.16 7.6 7.26 c0 4.12 -3.38 7.26 -7.6 7.26 c-4.18 0 -7.58 -3.14 -7.58 -7.26 z M16.8 14.1 c1.1 3.64 3.86 5.9 6.52 5.28 c2.7 -0.62 3.98 -3.88 2.9 -7.5 c-1.08 -3.64 -4.16 -5.8 -6.84 -5.18 s-3.68 3.8 -2.58 7.4 z M31.080000000000002 13.16 l0 -4.62 c0 -0.56 -0.26 -1.06 -0.62 -1.48 l-0.44 -0.5 l0 -0.56 l4.22 0 l0 0.56 l-0.4 0.5 c-0.34 0.42 -0.6 0.92 -0.6 1.48 l0 4.42 c0 3.48 1.68 5.9 4.06 5.9 c2.98 0 4.38 -2.42 4.38 -5.9 l0 -4.74 c0 -0.6 -0.28 -1.22 -0.76 -1.62 l0 -0.6 l2.38 0 l0 0.6 c-0.46 0.4 -0.74 1.02 -0.74 1.62 l0 4.78 c0 3.9 -1.98 7.1 -5.36 7.1 c-3.34 0 -6.12 -2.14 -6.12 -6.94 z M44.580000000000005 20 l0 -0.54 c0.66 -0.7 1.02 -1.66 1.02 -2.62 l0 -7.66 c0 -0.96 -0.36 -1.92 -1.02 -2.62 l0 -0.56 l4.26 0 l0 0.56 c-0.68 0.7 -1.02 1.66 -1.02 2.62 l0 9.9 l3.14 0 c1.06 0 2.08 -0.32 2.92 -0.94 l0.64 0 l0 1.86 l-9.94 0 z M55.32000000000001 20 l0 -0.54 c0.66 -0.72 1.02 -1.66 1.02 -2.64 l0 -7.64 c0 -0.96 -0.36 -1.92 -1.02 -2.62 l0 -0.56 l5.2 0 c4 0 7.22 3.14 7.22 7.02 c0 3.84 -3.22 6.98 -7.22 6.98 l-5.2 0 z M58.52000000000001 19.4 l2 0 c2.66 0 4.8 -2.88 4.8 -6.38 c0 -3.56 -2.14 -6.4 -4.8 -6.4 l-2 0 l0 12.78 z M74.22000000000001 15.879999999999999 l-0.28 -1.88 c2.22 -0.2 3.12 -0.36 4.66 -0.36 c0.8 0 1.62 0.04 2.44 0.08 l0 -5.64 c0 -0.26 -0.08 -0.46 -0.26 -0.66 l-0.76 -0.84 l0 -0.58 l6.24 0 c2.36 0 4.24 1.92 4.24 4.26 c0 2.4 -2.06 4.24 -4.4 4.24 l-0.52 0 l1.54 0.3 l2.1 2.68 c0.48 0.62 1.08 1.16 1.76 1.62 l0.46 0.32 l0 0.58 l-3.8 0 l0 -0.58 c0.14 -0.16 0.22 -0.38 0.22 -0.58 c0 -0.22 -0.08 -0.44 -0.22 -0.62 l-2.96 -3.72 l-1.46 0 l0 3.88 l1.04 1.04 l0 0.58 l-4.24 0 l0 -0.58 l0.76 -0.82 c0.16 -0.16 0.26 -0.4 0.26 -0.64 l0 -3.44 c-1.04 -0.08 -2.04 -0.2 -3.12 -0.08 c-1.14 0.12 -2.2 0.6 -3.08 1.34 c-0.02 0 -0.62 0.1 -0.62 0.1 z M69.06000000000002 20 l0 -0.58 c0.64 -0.7 1 -1.6 1 -2.6 l0 -7.58 c0 -1 -0.36 -1.92 -1 -2.66 l0 -0.58 l10 0 l0 2.58 l-0.92 0 c-1.36 -1.04 -3 -1.62 -4.68 -1.62 l-1.2 0 l0 12.12 l1.14 0 c1.64 0 3.22 -0.56 4.56 -1.52 l0.18 -0.14 l0.82 0 l0 2.58 l-9.9 0 z M83.22000000000001 13.879999999999999 l2.36 0 c1.98 0 3.6 -1.62 3.6 -3.64 c0 -2 -1.62 -3.58 -3.6 -3.58 l-2.36 0 l0 7.22 z"></path></g><g id="SvgjsG13701" featureKey="EI8VXn-1" transform="matrix(1.76522513751597,0,0,1.76522513751597,55.858781702812244,189.8676081146863)" fill="#e0a465"><path d="M5.82 20 l-4.44 -11.66 c-0.18 -0.46 -0.42 -0.84 -0.72 -1.18 l-0.58 -0.6 l0 -0.56 l3.78 0 l0 0.56 l-0.28 0.58 c-0.14 0.32 -0.18 0.74 -0.06 1.08 l4.12 10.8 l4.16 -11.02 c0.18 -0.48 0.08 -1.04 -0.26 -1.4 l0 -0.6 l2.36 0 l0 0.6 l-0.76 0.54 c-0.18 0.14 -0.36 0.36 -0.46 0.62 l-4.66 12.24 l-2.2 0 z M14.66 20 l0 -0.54 c0.66 -0.72 1 -1.66 1 -2.64 l0 -7.64 c0 -0.96 -0.34 -1.92 -1 -2.62 l0 -0.56 l9.9 0 l0.12 2.58 l-0.94 0 c-1.36 -1.08 -3 -1.64 -4.68 -1.64 l-1.2 0 l0 5.8 l3 0 l0 0.92 l-3 0 l0 5.4 l1.18 0 c1.62 0 3.18 -0.54 4.52 -1.5 l0.18 -0.14 l0.94 0 l-0.12 2.54 l0 0.04 l-9.9 0 z M26.060000000000002 20 l0 -0.54 l0.32 -0.34 c0.36 -0.38 0.56 -0.82 0.56 -1.36 l0 -9.32 c0 -0.48 -0.16 -0.96 -0.46 -1.28 l-0.56 -0.58 l0 -0.58 l3.18 0 l8.14 12.66 l0 -10.7 c0 -0.52 -0.2 -1 -0.62 -1.38 l0 -0.58 l2.4 0 l0 0.58 l-0.32 0.32 c-0.38 0.34 -0.6 0.84 -0.6 1.34 l0 11.76 l-2.16 0 l-7.9 -12.3 l-0.22 0 l0 10.36 c0 0.52 0.24 1.02 0.62 1.4 l0 0.54 l-2.38 0 z M40.36 20 l0 -0.54 c0.66 -0.72 1.02 -1.66 1.02 -2.64 l0 -7.64 c0 -0.96 -0.36 -1.92 -1.02 -2.62 l0 -0.56 l5.2 0 c4 0 7.22 3.14 7.22 7.02 c0 3.84 -3.22 6.98 -7.22 6.98 l-5.2 0 z M43.56 19.4 l2 0 c2.66 0 4.8 -2.88 4.8 -6.38 c0 -3.56 -2.14 -6.4 -4.8 -6.4 l-2 0 l0 12.78 z M54.1 20 l0 -0.54 c0.62 -0.74 1.02 -1.68 1.02 -2.62 l0 -7.66 c0 -0.96 -0.4 -1.92 -1.02 -2.62 l0 -0.56 l4.24 0 l0 0.56 c-0.68 0.7 -1.06 1.66 -1.06 2.62 l0 7.66 c0 0.94 0.38 1.88 1.06 2.62 l0 0.54 l-4.24 0 z M59.81999999999999 20 l0 -0.54 l0.32 -0.34 c0.36 -0.38 0.56 -0.82 0.56 -1.36 l0 -9.32 c0 -0.48 -0.16 -0.96 -0.46 -1.28 l-0.56 -0.58 l0 -0.58 l3.18 0 l8.14 12.66 l0 -10.7 c0 -0.52 -0.2 -1 -0.62 -1.38 l0 -0.58 l2.4 0 l0 0.58 l-0.32 0.32 c-0.38 0.34 -0.6 0.84 -0.6 1.34 l0 11.76 l-2.16 0 l-7.9 -12.3 l-0.22 0 l0 10.36 c0 0.52 0.24 1.02 0.62 1.4 l0 0.54 l-2.38 0 z M88.42 20 l-0.14 -0.1 c-1.12 -0.66 -2.44 -0.7 -3.64 -0.22 c-0.9 0.36 -1.92 0.58 -2.96 0.58 c-4.2 0 -7.6 -3.14 -7.6 -7.26 s3.4 -7.26 7.6 -7.26 l0.76 0 c2.6 0 4.92 1.54 5.96 3.9 l-2.96 0 c-1.44 -2.2 -3.7 -3.46 -5.74 -2.98 c-2.7 0.64 -3.66 3.84 -2.56 7.44 c1.1 3.64 3.84 5.92 6.52 5.28 c1.06 -0.26 1.92 -0.96 2.48 -1.9 l0 -2.92 l-2.02 0 l0 -1 l4.3 0 l0 6.44 z M108.52000000000001 17.38 l1.46 0 c-1.36 1.7 -3.48 2.82 -5.9 2.82 c-4.12 0 -7.54 -3.2 -7.54 -7.24 c0 -4.1 3.42 -7.16 7.54 -7.16 l0.76 0 c1.54 0 3.26 0.6 4.18 1.64 l-3.52 0 c-0.78 -0.5 -1.64 -0.78 -2.48 -0.78 c-2.48 0 -3.88 2.02 -3.88 4.66 c0 4.42 3.08 8.16 6 8.16 c1.5 0 2.66 -0.86 3.38 -2.1 z M102.36 12.5 c0 -2.38 1.98 -4.34 4.42 -4.34 c2.42 0 4.36 1.96 4.36 4.34 s-1.94 4.32 -4.36 4.32 c-2.44 0 -4.42 -1.94 -4.42 -4.32 z M107.42 16.12 c1.42 0 2.2 -1.48 2.2 -2.86 c0 -2.4 -1.82 -4.34 -3.42 -4.34 c-1.38 0 -2.12 1.14 -2.12 2.64 c0 2.52 1.72 4.56 3.34 4.56 z M112.74 20.1 c-0.4 0 -0.64 -0.3 -0.64 -0.68 c0 -0.34 0.24 -0.62 0.64 -0.62 c0.36 0 0.64 0.28 0.64 0.62 c0 0.38 -0.28 0.68 -0.64 0.68 z"></path></g>
			</g>
		</svg>
	